# xmcd CD database file
#
# Track frame offsets:
#	150
#	14826
#	29340
#	42161
#	61163
#	75186
#	89202
#	104529
#	119367
#	132152
#
# Disc length: 1934 seconds
#
# Revision: 0
# Processed by: cddbd v1.5.1PL2 Copyright (c) Steve Scherf et al.
# Submitted via: CDex 1.51
#
DISCID=81078c0a
DTITLE=Greg Sterling - Greg Sterling
DYEAR=2006
DGENRE=Country
TTITLE0=How Could You Not
TTITLE1=Drifting Away
TTITLE2=The Horse
TTITLE3=When It Rains
TTITLE4=This Is A Drinking Song
TTITLE5=Love More (Than I Don't)
TTITLE6=It Ain't Called Heartland (For Nothing)
TTITLE7=I Remember Now
TTITLE8=Pride On The Line
TTITLE9=My Hat Is Off To You
EXTD=YEAR: 2006
EXTT0=
EXTT1=
EXTT2=
EXTT3=
EXTT4=
EXTT5=
EXTT6=
EXTT7=
EXTT8=
EXTT9=
PLAYORDER=
